<svg width="43" height="48" viewBox="0 0 43 48" fill="none" xmlns="http://www.w3.org/2000/svg">
<path d="M42.8555 43.862L28.9067 28.7687C31.0713 25.7407 32.2422 22.0386 32.2422 18.1447C32.2422 13.4836 30.561 9.11311 27.521 5.81781C24.481 2.52251 20.4312 0.709229 16.1289 0.709229C11.8267 0.709229 7.77685 2.52833 4.73682 5.81781C1.69141 9.1073 0.015625 13.4836 0.015625 18.1447C0.015625 22.7999 1.69678 27.182 4.73682 30.4715C7.77685 33.7668 11.8213 35.5801 16.1289 35.5801C19.7275 35.5801 23.1436 34.3131 25.9419 31.9768L39.8906 47.0643C39.9315 47.1086 39.9801 47.1437 40.0335 47.1677C40.087 47.1916 40.1443 47.204 40.2021 47.204C40.26 47.204 40.3173 47.1916 40.3708 47.1677C40.4242 47.1437 40.4728 47.1086 40.5137 47.0643L42.8555 44.5361C42.8964 44.4919 42.9289 44.4393 42.951 44.3815C42.9732 44.3236 42.9846 44.2617 42.9846 44.199C42.9846 44.1364 42.9732 44.0744 42.951 44.0166C42.9289 43.9588 42.8964 43.9062 42.8555 43.862V43.862ZM24.6367 27.3506C22.3594 29.809 19.3408 31.1631 16.1289 31.1631C12.917 31.1631 9.89844 29.809 7.62109 27.3506C5.34912 24.8864 4.09766 21.6201 4.09766 18.1447C4.09766 14.6692 5.34912 11.3972 7.62109 8.93876C9.89844 6.48036 12.917 5.12621 16.1289 5.12621C19.3408 5.12621 22.3647 6.47455 24.6367 8.93876C26.9087 11.403 28.1602 14.6692 28.1602 18.1447C28.1602 21.6201 26.9087 24.8922 24.6367 27.3506Z" fill="black"/>
</svg>
